<svg xmlns="http://www.w3.org/2000/svg" viewBox="0 0 120 120" fill="none">
  <defs>
    <linearGradient id="bg" x1="0" y1="0" x2="120" y2="120" gradientUnits="userSpaceOnUse">
      <stop offset="0%" stop-color="#0B1E3D"/>
      <stop offset="100%" stop-color="#0A3854"/>
    </linearGradient>
    <linearGradient id="teal" x1="0" y1="0" x2="1" y2="1">
      <stop offset="0%" stop-color="#00D4FF"/>
      <stop offset="100%" stop-color="#00A8CC"/>
    </linearGradient>
    <linearGradient id="bookGrad" x1="0" y1="0" x2="0" y2="1">
      <stop offset="0%" stop-color="#1A4A7A"/>
      <stop offset="100%" stop-color="#0D2E50"/>
    </linearGradient>
    <filter id="glow">
      <feGaussianBlur stdDeviation="2" result="coloredBlur"/>
      <feMerge><feMergeNode in="coloredBlur"/><feMergeNode in="SourceGraphic"/></feMerge>
    </filter>
  </defs>
  <rect width="120" height="120" rx="28" fill="url(#bg)"/>
  <path d="M22 32 Q22 28 26 28 L56 28 L56 88 Q46 84 26 88 Q22 88 22 84 Z" fill="url(#bookGrad)" stroke="#1E5A8A" stroke-width="1"/>
  <path d="M64 28 L94 28 Q98 28 98 32 L98 84 Q98 88 94 88 Q74 84 64 88 Z" fill="url(#bookGrad)" stroke="#1E5A8A" stroke-width="1"/>
  <rect x="56" y="26" width="8" height="64" rx="2" fill="#1A4A7A"/>
  <line x1="30" y1="40" x2="52" y2="40" stroke="#2A5A8A" stroke-width="1.5" stroke-linecap="round"/>
  <line x1="30" y1="48" x2="50" y2="48" stroke="#2A5A8A" stroke-width="1.5" stroke-linecap="round"/>
  <line x1="30" y1="56" x2="52" y2="56" stroke="#2A5A8A" stroke-width="1.5" stroke-linecap="round"/>
  <line x1="30" y1="64" x2="48" y2="64" stroke="#2A5A8A" stroke-width="1.5" stroke-linecap="round"/>
  <line x1="68" y1="40" x2="90" y2="40" stroke="#2A5A8A" stroke-width="1.5" stroke-linecap="round"/>
  <line x1="70" y1="48" x2="90" y2="48" stroke="#2A5A8A" stroke-width="1.5" stroke-linecap="round"/>
  <line x1="68" y1="56" x2="90" y2="56" stroke="#2A5A8A" stroke-width="1.5" stroke-linecap="round"/>
  <line x1="70" y1="64" x2="88" y2="64" stroke="#2A5A8A" stroke-width="1.5" stroke-linecap="round"/>
  <rect x="52" y="48" width="16" height="26" rx="8" fill="url(#teal)" filter="url(#glow)"/>
  <line x1="52" y1="56" x2="68" y2="56" stroke="rgba(0,30,60,0.35)" stroke-width="1"/>
  <line x1="52" y1="61" x2="68" y2="61" stroke="rgba(0,30,60,0.35)" stroke-width="1"/>
  <line x1="52" y1="66" x2="68" y2="66" stroke="rgba(0,30,60,0.35)" stroke-width="1"/>
  <path d="M46 76 Q46 88 60 88 Q74 88 74 76" stroke="url(#teal)" stroke-width="2.5" fill="none" stroke-linecap="round" filter="url(#glow)"/>
  <line x1="60" y1="88" x2="60" y2="95" stroke="url(#teal)" stroke-width="2.5" stroke-linecap="round"/>
  <line x1="52" y1="95" x2="68" y2="95" stroke="url(#teal)" stroke-width="2.5" stroke-linecap="round"/>
  <path d="M39 58 Q36 61 39 64" stroke="url(#teal)" stroke-width="2" fill="none" stroke-linecap="round" opacity="0.9"/>
  <path d="M34 53 Q29 60 34 67" stroke="url(#teal)" stroke-width="1.5" fill="none" stroke-linecap="round" opacity="0.55"/>
  <path d="M81 58 Q84 61 81 64" stroke="url(#teal)" stroke-width="2" fill="none" stroke-linecap="round" opacity="0.9"/>
  <path d="M86 53 Q91 60 86 67" stroke="url(#teal)" stroke-width="1.5" fill="none" stroke-linecap="round" opacity="0.55"/>
  <rect x="53" y="36" width="14" height="11" rx="3" fill="#00D4FF"/>
  <text x="60" y="44.5" text-anchor="middle" font-family="Arial, sans-serif" font-size="7.5" font-weight="bold" fill="#0B1E3D">AI</text>
</svg>
